<?xml version="1.0"?>
<svg xmlns="http://www.w3.org/2000/svg" xmlns:xlink="http://www.w3.org/1999/xlink" xmlns:svgjs="http://svgjs.com/svgjs" version="1.1" width="512" height="512" x="0" y="0" viewBox="0 0 226.097 226.097" style="enable-background:new 0 0 512 512" xml:space="preserve"><g>
<g xmlns="http://www.w3.org/2000/svg">
	<path d="M88.44,108.614c8.838-6.898,14.536-17.639,14.536-29.692c0-20.766-16.894-37.66-37.659-37.66H7.5   c-4.143,0-7.5,3.358-7.5,7.5v128.573c0,4.142,3.357,7.5,7.5,7.5h57.817c22.954,0,41.628-18.673,41.628-41.624   C106.945,128.806,99.59,116.09,88.44,108.614z M65.317,56.262c12.494,0,22.659,10.166,22.659,22.66   c0,12.494-10.165,22.659-22.659,22.659H15V56.262H65.317z M65.317,169.835H15v-53.254h50.317c14.683,0,26.628,11.946,26.628,26.629   C91.945,157.891,80,169.835,65.317,169.835z" fill="#ffffff" data-original="#000000" style=""/>
	<path d="M171.175,74.993c-30.283,0-54.921,24.637-54.921,54.921s24.638,54.921,54.921,54.921c14.67,0,28.462-5.713,38.836-16.087   c2.93-2.929,2.93-7.677,0.001-10.606c-2.929-2.929-7.678-2.929-10.607,0c-7.542,7.54-17.567,11.693-28.23,11.693   c-19.448,0-35.684-13.983-39.204-32.421h86.626c4.143,0,7.5-3.358,7.5-7.5C226.097,99.63,201.459,74.993,171.175,74.993z    M171.175,89.993c19.448,0,35.684,13.982,39.205,32.421h-78.409C135.491,103.975,151.727,89.993,171.175,89.993z" fill="#ffffff" data-original="#000000" style=""/>
	<path d="M137.429,60.23h63.493c4.143,0,7.5-3.358,7.5-7.5c0-4.142-3.357-7.5-7.5-7.5h-63.493c-4.143,0-7.5,3.358-7.5,7.5   C129.929,56.872,133.286,60.23,137.429,60.23z" fill="#ffffff" data-original="#000000" style=""/>
</g>
<g xmlns="http://www.w3.org/2000/svg">
</g>
<g xmlns="http://www.w3.org/2000/svg">
</g>
<g xmlns="http://www.w3.org/2000/svg">
</g>
<g xmlns="http://www.w3.org/2000/svg">
</g>
<g xmlns="http://www.w3.org/2000/svg">
</g>
<g xmlns="http://www.w3.org/2000/svg">
</g>
<g xmlns="http://www.w3.org/2000/svg">
</g>
<g xmlns="http://www.w3.org/2000/svg">
</g>
<g xmlns="http://www.w3.org/2000/svg">
</g>
<g xmlns="http://www.w3.org/2000/svg">
</g>
<g xmlns="http://www.w3.org/2000/svg">
</g>
<g xmlns="http://www.w3.org/2000/svg">
</g>
<g xmlns="http://www.w3.org/2000/svg">
</g>
<g xmlns="http://www.w3.org/2000/svg">
</g>
<g xmlns="http://www.w3.org/2000/svg">
</g>
</g></svg>
